<svg aria-hidden="true" style="position: absolute; width: 0; height: 0; overflow: hidden;" version="1.1" xmlns="http://www.w3.org/2000/svg" xmlns:xlink="http://www.w3.org/1999/xlink">
<defs>
<symbol id="icon-iphone" viewBox="0 0 24 32">
<path d="M16 0h-8c-4.418 0-8 3.582-8 8v16c0 4.418 3.582 8 8 8h8c4.418 0 8-3.582 8-8v-16c0-4.418-3.582-8-8-8zM12 30.062c-1.139 0-2.062-0.922-2.062-2.062s0.924-2.062 2.062-2.062 2.062 0.922 2.062 2.062-0.923 2.062-2.062 2.062zM20 24h-16v-16c0-2.203 1.795-4 4-4h8c2.203 0 4 1.797 4 4v16z"></path>
</symbol>
<symbol id="icon-phone" viewBox="0 0 32 32">
<path d="M2.126 1.188c1.278-1.281 5.141-1.495 5.17-0.817 0.029 0.677 3.479 8.191 3.509 8.869s-2.274 2.987-2.948 3.663c-0.668 0.669 4.508 6.533 4.606 6.644 0.11 0.099 5.96 5.287 6.628 4.617 0.674-0.676 2.979-2.985 3.653-2.955 0.676 0.029 8.173 3.487 8.849 3.518 0.676 0.029 0.463 3.9-0.815 5.182-1.093 1.095-6.752 5.071-16.592-2.029-1.079-0.622-2.788-2.049-5.38-4.646-0.001-0.001-0.003-0.003-0.005-0.004-0.002-0.003-0.004-0.004-0.006-0.006s-0.004-0.004-0.006-0.006c-0.001-0.002-0.003-0.004-0.004-0.005-2.59-2.598-4.014-4.312-4.635-5.393-7.083-9.864-3.116-15.537-2.024-16.632z"></path>
</symbol>
<symbol id="icon-envelop" viewBox="0 0 32 32">
<path d="M29 4h-26c-1.65 0-3 1.35-3 3v20c0 1.65 1.35 3 3 3h26c1.65 0 3-1.35 3-3v-20c0-1.65-1.35-3-3-3zM12.461 17.199l-8.461 6.59v-15.676l8.461 9.086zM5.512 8h20.976l-10.488 7.875-10.488-7.875zM12.79 17.553l3.21 3.447 3.21-3.447 6.58 8.447h-19.579l6.58-8.447zM19.539 17.199l8.461-9.086v15.676l-8.461-6.59z"></path>
</symbol>
<symbol id="icon-search" viewBox="0 0 32 32">
<path d="M31.008 27.231l-7.58-6.447c-0.784-0.705-1.622-1.029-2.299-0.998 1.789-2.096 2.87-4.815 2.87-7.787 0-6.627-5.373-12-12-12s-12 5.373-12 12 5.373 12 12 12c2.972 0 5.691-1.081 7.787-2.87-0.031 0.677 0.293 1.515 0.998 2.299l6.447 7.58c1.104 1.226 2.907 1.33 4.007 0.23s0.997-2.903-0.23-4.007zM12 20c-4.418 0-8-3.582-8-8s3.582-8 8-8 8 3.582 8 8-3.582 8-8 8z"></path>
</symbol>
<symbol id="icon-bin" viewBox="0 0 32 32">
<path d="M4 10v20c0 1.1 0.9 2 2 2h18c1.1 0 2-0.9 2-2v-20h-22zM10 28h-2v-14h2v14zM14 28h-2v-14h2v14zM18 28h-2v-14h2v14zM22 28h-2v-14h2v14z"></path>
<path d="M26.5 4h-6.5v-2.5c0-0.825-0.675-1.5-1.5-1.5h-7c-0.825 0-1.5 0.675-1.5 1.5v2.5h-6.5c-0.825 0-1.5 0.675-1.5 1.5v2.5h26v-2.5c0-0.825-0.675-1.5-1.5-1.5zM18 4h-6v-1.975h6v1.975z"></path>
</symbol>
<symbol id="icon-menu" viewBox="0 0 32 32">
<path d="M2 6h28v6h-28zM2 14h28v6h-28zM2 22h28v6h-28z"></path>
</symbol>
<symbol id="icon-cross" viewBox="0 0 32 32">
<path d="M31.708 25.708c-0-0-0-0-0-0l-9.708-9.708 9.708-9.708c0-0 0-0 0-0 0.105-0.105 0.18-0.227 0.229-0.357 0.133-0.356 0.057-0.771-0.229-1.057l-4.586-4.586c-0.286-0.286-0.702-0.361-1.057-0.229-0.13 0.048-0.252 0.124-0.357 0.228 0 0-0 0-0 0l-9.708 9.708-9.708-9.708c-0-0-0-0-0-0-0.105-0.104-0.227-0.18-0.357-0.228-0.356-0.133-0.771-0.057-1.057 0.229l-4.586 4.586c-0.286 0.286-0.361 0.702-0.229 1.057 0.049 0.13 0.124 0.252 0.229 0.357 0 0 0 0 0 0l9.708 9.708-9.708 9.708c-0 0-0 0-0 0-0.104 0.105-0.18 0.227-0.229 0.357-0.133 0.355-0.057 0.771 0.229 1.057l4.586 4.586c0.286 0.286 0.702 0.361 1.057 0.229 0.13-0.049 0.252-0.124 0.357-0.229 0-0 0-0 0-0l9.708-9.708 9.708 9.708c0 0 0 0 0 0 0.105 0.105 0.227 0.18 0.357 0.229 0.356 0.133 0.771 0.057 1.057-0.229l4.586-4.586c0.286-0.286 0.362-0.702 0.229-1.057-0.049-0.13-0.124-0.252-0.229-0.357z"></path>
</symbol>
<symbol id="icon-facebook2" viewBox="0 0 32 32">
<path d="M29 0h-26c-1.65 0-3 1.35-3 3v26c0 1.65 1.35 3 3 3h13v-14h-4v-4h4v-2c0-3.306 2.694-6 6-6h4v4h-4c-1.1 0-2 0.9-2 2v2h6l-1 4h-5v14h9c1.65 0 3-1.35 3-3v-26c0-1.65-1.35-3-3-3z"></path>
</symbol>
<symbol id="icon-instagram" viewBox="0 0 32 32">
<path d="M16 2.881c4.275 0 4.781 0.019 6.462 0.094 1.563 0.069 2.406 0.331 2.969 0.55 0.744 0.288 1.281 0.638 1.837 1.194 0.563 0.563 0.906 1.094 1.2 1.838 0.219 0.563 0.481 1.412 0.55 2.969 0.075 1.688 0.094 2.194 0.094 6.463s-0.019 4.781-0.094 6.463c-0.069 1.563-0.331 2.406-0.55 2.969-0.288 0.744-0.637 1.281-1.194 1.837-0.563 0.563-1.094 0.906-1.837 1.2-0.563 0.219-1.413 0.481-2.969 0.55-1.688 0.075-2.194 0.094-6.463 0.094s-4.781-0.019-6.463-0.094c-1.563-0.069-2.406-0.331-2.969-0.55-0.744-0.288-1.281-0.637-1.838-1.194-0.563-0.563-0.906-1.094-1.2-1.837-0.219-0.563-0.481-1.413-0.55-2.969-0.075-1.688-0.094-2.194-0.094-6.463s0.019-4.781 0.094-6.463c0.069-1.563 0.331-2.406 0.55-2.969 0.288-0.744 0.638-1.281 1.194-1.838 0.563-0.563 1.094-0.906 1.838-1.2 0.563-0.219 1.412-0.481 2.969-0.55 1.681-0.075 2.188-0.094 6.463-0.094zM16 0c-4.344 0-4.887 0.019-6.594 0.094-1.7 0.075-2.869 0.35-3.881 0.744-1.056 0.412-1.95 0.956-2.837 1.85-0.894 0.888-1.438 1.781-1.85 2.831-0.394 1.019-0.669 2.181-0.744 3.881-0.075 1.713-0.094 2.256-0.094 6.6s0.019 4.887 0.094 6.594c0.075 1.7 0.35 2.869 0.744 3.881 0.413 1.056 0.956 1.95 1.85 2.837 0.887 0.887 1.781 1.438 2.831 1.844 1.019 0.394 2.181 0.669 3.881 0.744 1.706 0.075 2.25 0.094 6.594 0.094s4.888-0.019 6.594-0.094c1.7-0.075 2.869-0.35 3.881-0.744 1.050-0.406 1.944-0.956 2.831-1.844s1.438-1.781 1.844-2.831c0.394-1.019 0.669-2.181 0.744-3.881 0.075-1.706 0.094-2.25 0.094-6.594s-0.019-4.887-0.094-6.594c-0.075-1.7-0.35-2.869-0.744-3.881-0.394-1.063-0.938-1.956-1.831-2.844-0.887-0.887-1.781-1.438-2.831-1.844-1.019-0.394-2.181-0.669-3.881-0.744-1.712-0.081-2.256-0.1-6.6-0.1v0z"></path>
<path d="M16 7.781c-4.537 0-8.219 3.681-8.219 8.219s3.681 8.219 8.219 8.219 8.219-3.681 8.219-8.219c0-4.537-3.681-8.219-8.219-8.219zM16 21.331c-2.944 0-5.331-2.387-5.331-5.331s2.387-5.331 5.331-5.331c2.944 0 5.331 2.387 5.331 5.331s-2.387 5.331-5.331 5.331z"></path>
<path d="M26.462 7.456c0 1.060-0.859 1.919-1.919 1.919s-1.919-0.859-1.919-1.919c0-1.060 0.859-1.919 1.919-1.919s1.919 0.859 1.919 1.919z"></path>
</symbol>
<symbol id="icon-whatsapp" viewBox="0 0 32 32">
<path d="M27.281 4.65c-2.994-3-6.975-4.65-11.219-4.65-8.738 0-15.85 7.112-15.85 15.856 0 2.794 0.731 5.525 2.119 7.925l-2.25 8.219 8.406-2.206c2.319 1.262 4.925 1.931 7.575 1.931h0.006c0 0 0 0 0 0 8.738 0 15.856-7.113 15.856-15.856 0-4.238-1.65-8.219-4.644-11.219zM16.069 29.050v0c-2.369 0-4.688-0.637-6.713-1.837l-0.481-0.288-4.987 1.306 1.331-4.863-0.313-0.5c-1.325-2.094-2.019-4.519-2.019-7.012 0-7.269 5.912-13.181 13.188-13.181 3.519 0 6.831 1.375 9.319 3.862 2.488 2.494 3.856 5.8 3.856 9.325-0.006 7.275-5.919 13.188-13.181 13.188zM23.294 19.175c-0.394-0.2-2.344-1.156-2.706-1.288s-0.625-0.2-0.894 0.2c-0.262 0.394-1.025 1.288-1.256 1.556-0.231 0.262-0.462 0.3-0.856 0.1s-1.675-0.619-3.188-1.969c-1.175-1.050-1.975-2.35-2.206-2.744s-0.025-0.613 0.175-0.806c0.181-0.175 0.394-0.463 0.594-0.694s0.262-0.394 0.394-0.662c0.131-0.262 0.069-0.494-0.031-0.694s-0.894-2.15-1.219-2.944c-0.319-0.775-0.65-0.669-0.894-0.681-0.231-0.012-0.494-0.012-0.756-0.012s-0.694 0.1-1.056 0.494c-0.363 0.394-1.387 1.356-1.387 3.306s1.419 3.831 1.619 4.1c0.2 0.262 2.794 4.269 6.769 5.981 0.944 0.406 1.681 0.65 2.256 0.837 0.95 0.3 1.813 0.256 2.494 0.156 0.762-0.113 2.344-0.956 2.675-1.881s0.331-1.719 0.231-1.881c-0.094-0.175-0.356-0.275-0.756-0.475z"></path>
</symbol>
<symbol id="icon-twitter" viewBox="0 0 32 32">
<path d="M32 7.075c-1.175 0.525-2.444 0.875-3.769 1.031 1.356-0.813 2.394-2.1 2.887-3.631-1.269 0.75-2.675 1.3-4.169 1.594-1.2-1.275-2.906-2.069-4.794-2.069-3.625 0-6.563 2.938-6.563 6.563 0 0.512 0.056 1.012 0.169 1.494-5.456-0.275-10.294-2.888-13.531-6.862-0.563 0.969-0.887 2.1-0.887 3.3 0 2.275 1.156 4.287 2.919 5.463-1.075-0.031-2.087-0.331-2.975-0.819 0 0.025 0 0.056 0 0.081 0 3.181 2.263 5.838 5.269 6.437-0.55 0.15-1.131 0.231-1.731 0.231-0.425 0-0.831-0.044-1.237-0.119 0.838 2.606 3.263 4.506 6.131 4.563-2.25 1.762-5.075 2.813-8.156 2.813-0.531 0-1.050-0.031-1.569-0.094 2.913 1.869 6.362 2.95 10.069 2.95 12.075 0 18.681-10.006 18.681-18.681 0-0.287-0.006-0.569-0.019-0.85 1.281-0.919 2.394-2.075 3.275-3.394z"></path>
</symbol>
<symbol id="icon-viber" viewBox="0 0 32 32">
<path fill="#665cac" style="fill: var(--color1, #665cac)" d="M15.197 0.003c-2.567 0.035-8.089 0.456-11.179 3.287-2.293 2.28-3.095 5.641-3.188 9.804-0.080 4.147-0.173 11.933 7.333 14.055v3.227c0 0-0.051 1.293 0.803 1.56 1.053 0.333 1.653-0.665 2.653-1.732l1.867-2.107c5.133 0.427 9.067-0.559 9.52-0.705 1.040-0.333 6.908-1.081 7.868-8.869 0.987-8.041-0.48-13.108-3.12-15.401l-0.013-0.003c-0.8-0.733-4-3.067-11.16-3.093 0 0-0.528-0.033-1.384-0.021zM15.287 2.265c0.727-0.004 1.173 0.027 1.173 0.027 6.053 0.013 8.948 1.84 9.628 2.453 2.227 1.905 3.371 6.475 2.533 13.189-0.8 6.507-5.56 6.92-6.44 7.2-0.373 0.12-3.84 0.973-8.203 0.693 0 0-3.252 3.921-4.265 4.935-0.16 0.173-0.347 0.227-0.467 0.2-0.173-0.040-0.227-0.253-0.213-0.547l0.027-5.359c-6.361-1.76-5.988-8.403-5.921-11.869 0.080-3.467 0.733-6.309 2.667-8.229 2.609-2.36 7.3-2.68 9.481-2.693zM15.767 5.732c-0 0-0.001 0-0.001 0-0.22 0-0.399 0.178-0.399 0.399 0 0 0 0 0 0v0c0 0.221 0.179 0.4 0.4 0.4v0c0.043-0.001 0.093-0.001 0.143-0.001 2.034 0 3.88 0.809 5.232 2.123l-0.002-0.002c1.453 1.413 2.161 3.307 2.188 5.787 0 0.221 0.179 0.4 0.4 0.4v0-0.012c0.221 0 0.4-0.179 0.4-0.4v0c0.005-0.109 0.008-0.236 0.008-0.364 0-2.326-0.923-4.436-2.423-5.985l0.002 0.002c-1.587-1.547-3.589-2.347-5.948-2.347zM10.495 6.652c-0.054-0.008-0.116-0.013-0.18-0.013-0.236 0-0.457 0.064-0.646 0.176l0.006-0.003h-0.016c-0.547 0.32-1.051 0.72-1.531 1.253-0.36 0.427-0.561 0.852-0.615 1.265-0.009 0.064-0.014 0.137-0.014 0.212 0 0.182 0.029 0.357 0.084 0.521l-0.003-0.012 0.027 0.013c0.458 1.331 0.998 2.476 1.646 3.549l-0.046-0.082c0.895 1.608 1.922 2.996 3.101 4.237l-0.008-0.009 0.040 0.053 0.053 0.040 0.080 0.080c1.236 1.174 2.628 2.205 4.136 3.053l0.104 0.054c1.76 0.96 2.829 1.413 3.469 1.6v0.013c0.187 0.053 0.357 0.080 0.531 0.080 0.57-0.043 1.079-0.274 1.471-0.631l-0.002 0.002c0.52-0.467 0.933-0.984 1.24-1.531v-0.013c0.307-0.573 0.2-1.121-0.24-1.495-0.845-0.742-1.782-1.421-2.781-2.007l-0.085-0.046c-0.68-0.373-1.373-0.147-1.653 0.227l-0.6 0.759c-0.307 0.373-0.867 0.32-0.867 0.32l-0.016 0.013c-4.16-1.067-5.267-5.279-5.267-5.279s-0.053-0.573 0.333-0.867l0.747-0.6c0.36-0.293 0.613-0.987 0.227-1.667-0.631-1.084-1.31-2.022-2.071-2.887l0.017 0.020c-0.166-0.204-0.399-0.349-0.665-0.399l-0.007-0.001zM16.459 7.839c-0.22 0.001-0.399 0.18-0.399 0.4s0.179 0.4 0.4 0.4c0 0 0.001 0 0.001 0h-0c1.388 0.025 2.636 0.607 3.532 1.532l0.001 0.001c0.75 0.825 1.209 1.926 1.209 3.134 0 0.103-0.003 0.205-0.010 0.306l0.001-0.014c0.001 0.22 0.18 0.399 0.4 0.399 0 0 0 0 0 0v0l0.013 0.016c0 0 0 0 0 0 0.221 0 0.4-0.179 0.4-0.4 0-0 0-0.001 0-0.001v0c0.040-1.587-0.453-2.92-1.427-3.987s-2.333-1.667-4.067-1.787c-0.008-0.001-0.018-0.001-0.028-0.001s-0.020 0-0.029 0.001l0.001-0zM17.112 9.997c-0.004-0-0.008-0-0.012-0-0.225 0-0.407 0.182-0.407 0.408 0 0.221 0.176 0.401 0.395 0.407h0.001c1.32 0.067 1.96 0.733 2.040 2.107 0.007 0.215 0.184 0.387 0.4 0.387 0 0 0 0 0 0h0.013c0.215-0.007 0.388-0.183 0.388-0.4 0-0.009-0-0.019-0.001-0.028l0 0.001c-0.093-1.787-1.067-2.788-2.8-2.881-0.002-0-0.005-0-0.008-0s-0.006 0-0.008 0h0z"></path>
</symbol>
<symbol id="icon-telegram" viewBox="0 0 32 32">
<path fill="#2ca5e0" style="fill: var(--color2, #2ca5e0)" d="M31.88 5.053l-4.813 22.733c-0.333 1.613-1.307 2-2.667 1.253l-7.333-5.427-3.547 3.427c-0.4 0.4-0.733 0.747-1.467 0.747-0.96 0-0.8-0.36-1.12-1.267l-2.533-8.253-7.267-2.267c-1.573-0.467-1.587-1.547 0.347-2.333l28.347-10.933c1.293-0.573 2.533 0.32 2.053 2.32z"></path>
</symbol>
</defs>
</svg>
